<svg width="33" height="21" viewBox="0 0 33 21" fill="none" xmlns="http://www.w3.org/2000/svg">
<path fill-rule="evenodd" clip-rule="evenodd" d="M0.486206 0.363632V20H9.29761C10.7487 20 11.9823 19.7635 12.9987 19.2905C14.015 18.8111 14.7916 18.1591 15.3285 17.3345C15.8655 16.5035 16.1339 15.5607 16.1339 14.506C16.1339 13.56 15.9294 12.7418 15.5203 12.0515C15.1112 11.3548 14.5679 10.8114 13.8904 10.4215C13.2191 10.0316 12.4873 9.81747 11.6947 9.77911V9.58736C12.417 9.43394 13.053 9.16548 13.6027 8.78195C14.1523 8.39844 14.5839 7.91583 14.8971 7.33415C15.2103 6.74609 15.3669 6.07812 15.3669 5.33025C15.3669 4.34587 15.1144 3.47975 14.6094 2.73189C14.1108 1.98401 13.363 1.40234 12.3658 0.986862C11.375 0.571381 10.1445 0.363632 8.67444 0.363632H0.486206ZM8.16626 16.1744H5.2323V11.4954H8.25256C8.85974 11.4954 9.38074 11.5977 9.81543 11.8022C10.25 12.0004 10.5857 12.2848 10.8221 12.6555C11.0586 13.0199 11.1769 13.4545 11.1769 13.9595C11.1769 14.6562 10.9308 15.1996 10.4386 15.5895C9.95288 15.9794 9.19531 16.1744 8.16626 16.1744ZM7.85938 8.43678H5.2323V4.13174H7.93616C8.72876 4.13174 9.3584 4.32031 9.82495 4.69743C10.2916 5.07457 10.5249 5.59233 10.5249 6.2507C10.5249 6.71094 10.4099 7.10405 10.1797 7.43004C9.95605 7.75603 9.64282 8.00533 9.24011 8.1779C8.8374 8.35049 8.3772 8.43678 7.85938 8.43678ZM21.3115 19.3672C22.4301 19.9744 23.7596 20.278 25.3002 20.278C26.585 20.278 27.7163 20.0831 28.6943 19.6932C29.6722 19.2969 30.4617 18.744 31.0625 18.0344C31.6698 17.3185 32.0629 16.478 32.2419 15.5128L27.9369 15.3881C27.8154 15.7141 27.6332 15.989 27.3904 16.2127C27.1475 16.4364 26.8566 16.6058 26.5178 16.7209C26.1791 16.8359 25.8019 16.8935 25.3865 16.8935C24.7855 16.8935 24.2678 16.7688 23.8331 16.5195C23.3984 16.2702 23.0629 15.9219 22.8264 15.4744C22.5898 15.0206 22.4717 14.4933 22.4717 13.8924V13.7677H32.2898V12.598C32.2898 11.3899 32.114 10.3192 31.7625 9.386C31.4109 8.44638 30.9187 7.65695 30.2859 7.01775C29.6531 6.37854 28.9021 5.89595 28.0327 5.56995C27.1635 5.24396 26.2046 5.08096 25.1562 5.08096C23.6733 5.08096 22.3854 5.40056 21.2924 6.03976C20.1992 6.67258 19.3523 7.56108 18.7515 8.70525C18.1506 9.84303 17.8502 11.1726 17.8502 12.6939C17.8502 14.2599 18.1475 15.6119 18.7419 16.7496C19.3428 17.881 20.1992 18.7535 21.3115 19.3672ZM22.4745 11.0447C22.4977 10.5707 22.6246 10.1457 22.8552 9.76953C23.098 9.36682 23.4272 9.05042 23.8428 8.82031C24.2582 8.5838 24.728 8.46555 25.2522 8.46555C25.7699 8.46555 26.2269 8.57741 26.6233 8.80113C27.026 9.01846 27.3424 9.32208 27.5725 9.71201C27.8026 10.1019 27.9209 10.5462 27.9272 11.0447H22.4745ZM29 1H21V3H29V1Z" fill="white"/>
</svg>
