<svg width="85" height="115" viewBox="0 0 85 115" fill="none" xmlns="http://www.w3.org/2000/svg">
<path d="M42.88 78.2V102.38" stroke="white" stroke-width="1.5" stroke-miterlimit="10" stroke-linecap="round"/>
<path d="M69 106.38V107.38C69 104.62 66.76 102.38 64 102.38H21.1C18.34 102.38 16.1 104.62 16.1 107.38V106.52" stroke="white" stroke-width="1.5" stroke-miterlimit="10" stroke-linecap="round"/>
<path d="M44.12 102.38C41.36 102.38 39.12 104.62 39.12 107.38V106.52" stroke="white" stroke-width="1.5" stroke-miterlimit="10" stroke-linecap="round"/>
<path d="M12.36 110.12C12.36 112.19 14.04 113.86 16.1 113.86C18.16 113.86 19.84 112.19 19.84 110.12C19.84 108.05 18.16 106.38 16.1 106.38C14.04 106.38 12.36 108.05 12.36 110.12V110.12Z" fill="#B5E85D" stroke="white" stroke-width="1.5" stroke-miterlimit="10" stroke-linecap="round"/>
<path d="M35.38 110.12C35.38 112.19 37.06 113.86 39.12 113.86C41.18 113.86 42.86 112.19 42.86 110.12C42.86 108.05 41.18 106.38 39.12 106.38C37.06 106.38 35.38 108.05 35.38 110.12V110.12Z" fill="#B5E85D" stroke="white" stroke-width="1.5" stroke-miterlimit="10" stroke-linecap="round"/>
<path d="M65.26 110.12C65.26 112.19 66.94 113.86 69 113.86C71.06 113.86 72.74 112.19 72.74 110.12C72.74 108.05 71.06 106.38 69 106.38C66.94 106.38 65.26 108.05 65.26 110.12Z" fill="#B5E85D" stroke="white" stroke-width="1.5" stroke-miterlimit="10" stroke-linecap="round"/>
<path d="M74.2 50.05H71.01C70.92 52.25 70.79 54.36 70.65 56.35H74.21C75.95 56.35 77.36 54.94 77.36 53.2C77.36 51.46 75.95 50.05 74.21 50.05H74.2Z" fill="#B5E85D" stroke="white" stroke-width="1.5" stroke-miterlimit="10" stroke-linecap="round"/>
<path d="M13.15 50.05C11.41 50.05 10 51.46 10 53.2C10 54.94 11.41 56.35 13.15 56.35H15.11C14.96 54.36 14.84 52.25 14.75 50.05H13.15V50.05Z" fill="#B5E85D" stroke="white" stroke-width="1.5" stroke-miterlimit="10" stroke-linecap="round"/>
<path d="M63.6 74.25C63.12 74.47 62.57 74.6 61.96 74.6C61.35 74.6 60.8 74.47 60.32 74.25H27.03C26.55 74.47 26 74.6 25.39 74.6C24.78 74.6 24.23 74.47 23.75 74.25H19.12C18.95 74.25 18.77 74.17 18.6 74.02C18.6 74.1 18.58 74.17 18.58 74.25C18.58 76.43 20.35 78.19 22.52 78.19H63.23C65.41 78.19 67.17 76.42 67.17 74.25C67.17 74.17 67.15 74.1 67.15 74.02C66.98 74.16 66.81 74.25 66.63 74.25H63.59H63.6Z" fill="#B5E85D" stroke="white" stroke-width="1.5" stroke-miterlimit="10" stroke-linecap="round"/>
<path d="M66.63 4H19.12C16.58 4 14.52 19.73 14.52 39.13C14.52 42.94 14.6 46.61 14.75 50.04C14.84 52.24 14.97 54.35 15.11 56.34C15.82 65.94 17.1 72.74 18.61 74.02C18.78 74.16 18.95 74.25 19.13 74.25H66.63C66.8 74.25 66.98 74.17 67.15 74.02C68.65 72.74 69.94 65.94 70.65 56.34C70.8 54.35 70.92 52.24 71.01 50.04C71.16 46.6 71.24 42.94 71.24 39.13C71.24 19.73 69.18 4 66.64 4H66.63Z" fill="#B5E85D" stroke="white" stroke-width="1.5" stroke-miterlimit="10" stroke-linecap="round"/>
</svg>
