<svg width="85" height="115" viewBox="0 0 85 115" fill="none" xmlns="http://www.w3.org/2000/svg">
<path d="M45.3717 70.31H44.7717H51.6217" stroke="white" stroke-width="1.5" stroke-miterlimit="10" stroke-linecap="round"/>
<path d="M56.4217 70.31H62.5217C64.7017 70.31 66.4617 72.08 66.4617 74.25C66.4617 76.43 64.6917 78.19 62.5217 78.19H21.8217C19.6417 78.19 17.8817 76.42 17.8817 74.25" fill="#B5E85D"/>
<path d="M56.4217 70.31H62.5217C64.7017 70.31 66.4617 72.08 66.4617 74.25C66.4617 76.43 64.6917 78.19 62.5217 78.19H21.8217C19.6417 78.19 17.8817 76.42 17.8817 74.25" stroke="white" stroke-width="1.5" stroke-miterlimit="10" stroke-linecap="round"/>
<path d="M42.1717 78.2V102.38" stroke="white" stroke-width="1.5" stroke-miterlimit="10" stroke-linecap="round"/>
<path d="M68.3017 106.52V107.38C68.3017 104.62 66.0617 102.38 63.3017 102.38H20.4017C17.6417 102.38 15.4017 104.62 15.4017 107.38V106.38" stroke="white" stroke-width="1.5" stroke-miterlimit="10" stroke-linecap="round"/>
<path d="M43.4217 102.38C40.6617 102.38 38.4217 104.62 38.4217 107.38V106.38" stroke="white" stroke-width="1.5" stroke-miterlimit="10" stroke-linecap="round"/>
<path d="M11.6617 110.12C11.6617 112.19 13.3417 113.86 15.4017 113.86C17.4617 113.86 19.1417 112.19 19.1417 110.12C19.1417 108.05 17.4617 106.38 15.4017 106.38C13.3417 106.38 11.6617 108.05 11.6617 110.12Z" fill="#B5E85D" stroke="white" stroke-width="1.5" stroke-miterlimit="10" stroke-linecap="round"/>
<path d="M34.6817 110.12C34.6817 112.19 36.3617 113.86 38.4217 113.86C40.4817 113.86 42.1617 112.19 42.1617 110.12C42.1617 108.05 40.4817 106.38 38.4217 106.38C36.3617 106.38 34.6817 108.05 34.6817 110.12Z" fill="#B5E85D" stroke="white" stroke-width="1.5" stroke-miterlimit="10" stroke-linecap="round"/>
<path d="M64.5617 110.12C64.5617 112.19 66.2417 113.86 68.3017 113.86C70.3617 113.86 72.0417 112.19 72.0417 110.12C72.0417 108.05 70.3617 106.38 68.3017 106.38C66.2417 106.38 64.5617 108.05 64.5617 110.12V110.12Z" fill="#B5E85D" stroke="white" stroke-width="1.5" stroke-miterlimit="10" stroke-linecap="round"/>
<path d="M60.3017 50.05H47.7517C46.4217 50.05 45.3517 51.46 45.3517 53.2C45.3517 54.94 46.4217 56.35 47.7517 56.35H51.6317V72.26C51.6317 73.55 52.7017 74.6 54.0317 74.6C55.3617 74.6 56.4317 73.55 56.4317 72.26V56.35H60.3117C61.6417 56.35 62.7117 54.94 62.7117 53.2C62.7117 51.46 61.6417 50.05 60.3117 50.05H60.3017Z" fill="#B5E85D" stroke="white" stroke-width="1.5" stroke-miterlimit="10" stroke-linecap="round"/>
<path d="M38.2917 39.13C38.2917 58.52 43.1817 74.25 41.8217 74.25H16.2917C14.9217 74.25 7.82173 58.52 7.82173 39.13C7.82173 19.73 3.92173 4 5.29173 4H30.8217C32.1917 4 38.2917 19.73 38.2917 39.13Z" fill="#B5E85D" stroke="white" stroke-width="1.5" stroke-miterlimit="10" stroke-linecap="round"/>
<path d="M46.1617 73.34C46.1617 75.54 44.3717 77.33 42.1717 77.33C39.9717 77.33 38.1817 75.54 38.1817 73.34C38.1817 71.14 39.9717 69.35 42.1717 69.35C44.3717 69.35 46.1617 71.14 46.1617 73.34Z" fill="#B5E85D" stroke="white" stroke-width="1.5" stroke-miterlimit="10" stroke-linecap="round"/>
<path d="M42.8017 73.34C42.8017 73.63 42.5717 73.87 42.2817 73.87C41.9917 73.87 41.7617 73.63 41.7617 73.34C41.7617 73.05 41.9917 72.82 42.2817 72.82C42.5717 72.82 42.8017 73.06 42.8017 73.34Z" fill="#B5E85D" stroke="white" stroke-width="1.5" stroke-miterlimit="10" stroke-linecap="round"/>
</svg>
