<svg width="85" height="115" viewBox="0 0 85 115" fill="none" xmlns="http://www.w3.org/2000/svg">
<path d="M38.6799 70.31H39.2799H32.4299" stroke="white" stroke-width="1.5" stroke-miterlimit="10" stroke-linecap="round"/>
<path d="M27.6299 70.31H21.5299C19.3499 70.31 17.5899 72.08 17.5899 74.25C17.5899 76.43 19.3599 78.19 21.5299 78.19H62.2299C64.4099 78.19 66.1699 76.42 66.1699 74.25" fill="#B5E85D"/>
<path d="M27.6299 70.31H21.5299C19.3499 70.31 17.5899 72.08 17.5899 74.25C17.5899 76.43 19.3599 78.19 21.5299 78.19H62.2299C64.4099 78.19 66.1699 76.42 66.1699 74.25" stroke="white" stroke-width="1.5" stroke-miterlimit="10" stroke-linecap="round"/>
<path d="M42.51 78.2V102.38" stroke="white" stroke-width="1.5" stroke-miterlimit="10" stroke-linecap="round"/>
<path d="M68.64 106.52V107.38C68.64 104.62 66.4 102.38 63.64 102.38H20.74C17.98 102.38 15.74 104.62 15.74 107.38V106.38" stroke="white" stroke-width="1.5" stroke-miterlimit="10" stroke-linecap="round"/>
<path d="M43.76 102.38C41 102.38 38.76 104.62 38.76 107.38V106.38" stroke="white" stroke-width="1.5" stroke-miterlimit="10" stroke-linecap="round"/>
<path d="M12 110.12C12 112.19 13.68 113.86 15.74 113.86C17.8 113.86 19.48 112.19 19.48 110.12C19.48 108.05 17.8 106.38 15.74 106.38C13.68 106.38 12 108.05 12 110.12Z" fill="#B5E85D" stroke="white" stroke-width="1.5" stroke-miterlimit="10" stroke-linecap="round"/>
<path d="M35.02 110.12C35.02 112.19 36.7 113.86 38.76 113.86C40.82 113.86 42.5 112.19 42.5 110.12C42.5 108.05 40.82 106.38 38.76 106.38C36.7 106.38 35.02 108.05 35.02 110.12Z" fill="#B5E85D" stroke="white" stroke-width="1.5" stroke-miterlimit="10" stroke-linecap="round"/>
<path d="M64.9 110.12C64.9 112.19 66.58 113.86 68.64 113.86C70.7 113.86 72.38 112.19 72.38 110.12C72.38 108.05 70.7 106.38 68.64 106.38C66.58 106.38 64.9 108.05 64.9 110.12V110.12Z" fill="#B5E85D" stroke="white" stroke-width="1.5" stroke-miterlimit="10" stroke-linecap="round"/>
<path d="M23.75 50.05H36.2999C37.6299 50.05 38.7 51.46 38.7 53.2C38.7 54.94 37.6299 56.35 36.2999 56.35H32.4199V72.26C32.4199 73.55 31.35 74.6 30.02 74.6C28.69 74.6 27.6199 73.55 27.6199 72.26V56.35H23.7399C22.4099 56.35 21.34 54.94 21.34 53.2C21.34 51.46 22.4099 50.05 23.7399 50.05H23.75Z" fill="#B5E85D" stroke="white" stroke-width="1.5" stroke-miterlimit="10" stroke-linecap="round"/>
<path d="M45.7599 39.13C45.7599 58.52 40.8699 74.25 42.2299 74.25H67.7599C69.1299 74.25 76.2299 58.52 76.2299 39.13C76.2299 19.73 80.1299 4 78.7599 4H53.2299C51.8599 4 45.7599 19.73 45.7599 39.13Z" fill="#B5E85D" stroke="white" stroke-width="1.5" stroke-miterlimit="10" stroke-linecap="round"/>
<path d="M37.8899 73.34C37.8899 75.54 39.6799 77.33 41.8799 77.33C44.0799 77.33 45.8699 75.54 45.8699 73.34C45.8699 71.14 44.0799 69.35 41.8799 69.35C39.6799 69.35 37.8899 71.14 37.8899 73.34Z" fill="#B5E85D" stroke="white" stroke-width="1.5" stroke-miterlimit="10" stroke-linecap="round"/>
<path d="M41.2499 73.34C41.2499 73.63 41.4799 73.87 41.7699 73.87C42.0599 73.87 42.2899 73.63 42.2899 73.34C42.2899 73.05 42.0599 72.82 41.7699 72.82C41.4799 72.82 41.2499 73.06 41.2499 73.34Z" fill="#B5E85D" stroke="white" stroke-width="1.5" stroke-miterlimit="10" stroke-linecap="round"/>
</svg>
