<svg width="84" height="115" viewBox="0 0 84 115" fill="none" xmlns="http://www.w3.org/2000/svg">
<path d="M65.99 74.2082C65.99 76.3882 64.22 78.1482 62.05 78.1482H21.35C19.17 78.1482 17.41 76.3782 17.41 74.2082C17.41 72.0282 19.18 70.2682 21.35 70.2682H62.05C64.23 70.2682 65.99 72.0382 65.99 74.2082V74.2082Z" fill="#B5E85D" stroke="white" stroke-width="1.5" stroke-miterlimit="10" stroke-linecap="round"/>
<path d="M41.7 78.1482V102.338" stroke="white" stroke-width="1.5" stroke-miterlimit="10" stroke-linecap="round"/>
<path d="M67.83 106.338V107.338C67.83 104.578 65.59 102.338 62.83 102.338H19.93C17.17 102.338 14.93 104.578 14.93 107.338V106.338" stroke="white" stroke-width="1.5" stroke-miterlimit="10" stroke-linecap="round"/>
<path d="M42.94 102.338C40.18 102.338 37.94 104.578 37.94 107.338V106.478" fill="#B5E85D"/>
<path d="M42.94 102.338C40.18 102.338 37.94 104.578 37.94 107.338V106.478" stroke="white" stroke-width="1.5" stroke-miterlimit="10" stroke-linecap="round"/>
<path d="M11.18 110.078C11.18 112.148 12.86 113.818 14.92 113.818C16.98 113.818 18.66 112.148 18.66 110.078C18.66 108.008 16.98 106.338 14.92 106.338C12.86 106.338 11.18 108.008 11.18 110.078Z" fill="#B5E85D" stroke="white" stroke-width="1.5" stroke-miterlimit="10" stroke-linecap="round"/>
<path d="M34.2 110.078C34.2 112.148 35.88 113.818 37.94 113.818C40 113.818 41.68 112.148 41.68 110.078C41.68 108.008 40 106.338 37.94 106.338C35.88 106.338 34.2 108.008 34.2 110.078V110.078Z" fill="#B5E85D" stroke="white" stroke-width="1.5" stroke-miterlimit="10" stroke-linecap="round"/>
<path d="M64.08 110.078C64.08 112.148 65.76 113.818 67.82 113.818C69.88 113.818 71.56 112.148 71.56 110.078C71.56 108.008 69.88 106.338 67.82 106.338C65.76 106.338 64.08 108.008 64.08 110.078V110.078Z" fill="#B5E85D" stroke="white" stroke-width="1.5" stroke-miterlimit="10" stroke-linecap="round"/>
<path d="M9.01003 4.04817L8.14003 4.16817C7.26003 4.28817 6.47003 4.65817 5.81003 5.15817C4.41003 5.91817 3.56003 7.48817 3.79003 9.15817L3.88003 9.80817L6.71003 30.2082L12.3 70.4382C12.6 72.5982 14.59 74.0982 16.75 73.7982C18.91 73.4982 20.41 71.5082 20.11 69.3482L15.15 33.6582C16.78 32.6482 17.76 30.7482 17.48 28.7182L14.65 8.30817C14.27 5.57817 11.74 3.66817 9.01003 4.04817Z" fill="#B5E85D" stroke="white" stroke-width="1.5" stroke-miterlimit="10" stroke-linecap="round"/>
<path d="M22.38 73.2882C22.38 75.4882 20.59 77.2782 18.39 77.2782C16.19 77.2782 14.4 75.4882 14.4 73.2882C14.4 71.0882 16.19 69.2982 18.39 69.2982C20.59 69.2982 22.38 71.0882 22.38 73.2882Z" fill="#B5E85D" stroke="white" stroke-width="1.5" stroke-miterlimit="10" stroke-linecap="round"/>
<path d="M19.01 73.2882C19.01 73.5782 18.78 73.8182 18.49 73.8182C18.2 73.8182 17.97 73.5782 17.97 73.2882C17.97 72.9982 18.2 72.7682 18.49 72.7682C18.78 72.7682 19.01 73.0082 19.01 73.2882Z" fill="#B5E85D" stroke="white" stroke-width="1.5" stroke-miterlimit="10" stroke-linecap="round"/>
<path d="M53.91 49.9982H29.42C27.68 49.9982 26.27 51.4082 26.27 53.1482C26.27 54.8882 27.68 56.2982 29.42 56.2982H38.51V72.2082C38.51 73.4982 39.92 74.5482 41.66 74.5482C43.4 74.5482 44.81 73.4982 44.81 72.2082V56.2982H53.9C55.64 56.2982 57.05 54.8882 57.05 53.1482C57.05 51.4082 55.64 49.9982 53.9 49.9982H53.91Z" fill="#B5E85D" stroke="white" stroke-width="1.5" stroke-miterlimit="10" stroke-linecap="round"/>
</svg>
