<svg width="85" height="115" viewBox="0 0 85 115" fill="none" xmlns="http://www.w3.org/2000/svg">
<path d="M42.88 78.2V102.38" stroke="white" stroke-width="1.5" stroke-miterlimit="10" stroke-linecap="round"/>
<path d="M69 110.66V107.38C69 104.62 66.76 102.38 64 102.38H21.1C18.34 102.38 16.1 104.62 16.1 107.38V110.66" stroke="white" stroke-width="1.5" stroke-miterlimit="10" stroke-linecap="round"/>
<path d="M44.12 102.38C41.36 102.38 39.12 104.62 39.12 107.38V110.66" stroke="white" stroke-width="1.5" stroke-miterlimit="10" stroke-linecap="round"/>
<path d="M12.36 110.12C12.36 112.19 14.04 113.86 16.1 113.86C18.16 113.86 19.84 112.19 19.84 110.12C19.84 108.05 18.16 106.38 16.1 106.38C14.04 106.38 12.36 108.05 12.36 110.12V110.12Z" fill="#B5E85D" stroke="white" stroke-width="1.5" stroke-miterlimit="10" stroke-linecap="round"/>
<path d="M35.38 110.12C35.38 112.19 37.06 113.86 39.12 113.86C41.18 113.86 42.86 112.19 42.86 110.12C42.86 108.05 41.18 106.38 39.12 106.38C37.06 106.38 35.38 108.05 35.38 110.12V110.12Z" fill="#B5E85D" stroke="white" stroke-width="1.5" stroke-miterlimit="10" stroke-linecap="round"/>
<path d="M65.26 110.12C65.26 112.19 66.94 113.86 69 113.86C71.06 113.86 72.74 112.19 72.74 110.12C72.74 108.05 71.06 106.38 69 106.38C66.94 106.38 65.26 108.05 65.26 110.12V110.12Z" fill="#B5E85D" stroke="white" stroke-width="1.5" stroke-miterlimit="10" stroke-linecap="round"/>
<path d="M42.8401 56.35V70.31" stroke="#DBEED8" stroke-width="1.5" stroke-miterlimit="10" stroke-linecap="round"/>
<path d="M71.23 39.13C71.23 58.52 69.17 74.25 66.63 74.25H19.12C16.58 74.25 14.52 58.52 14.52 39.13C14.52 19.73 16.58 4 19.12 4H66.63C69.17 4 71.23 19.73 71.23 39.13V39.13Z" fill="#B5E85D" stroke="white" stroke-width="1.5" stroke-miterlimit="10" stroke-linecap="round"/>
<path d="M74.2001 50.05H64.7201C62.9801 50.05 61.5701 51.46 61.5701 53.2C61.5701 54.94 62.9801 56.35 64.7201 56.35H64.8101L61.8101 72.26C61.8101 73.55 63.2201 74.6 64.9601 74.6C66.7001 74.6 68.1101 73.55 68.1101 72.26L71.1101 56.35H74.2001C75.9401 56.35 77.3501 54.94 77.3501 53.2C77.3501 51.46 75.9401 50.05 74.2001 50.05Z" fill="#B5E85D" stroke="white" stroke-width="1.5" stroke-miterlimit="10" stroke-linecap="round"/>
<path d="M11.15 50.05H20.64C22.38 50.05 23.79 51.46 23.79 53.2C23.79 54.94 22.38 56.35 20.64 56.35H20.55L23.55 72.26C23.55 73.55 22.14 74.6 20.4 74.6C18.66 74.6 17.25 73.55 17.25 72.26L14.25 56.35H11.15C9.41 56.35 8 54.94 8 53.2C8 51.46 9.41 50.05 11.15 50.05Z" fill="#B5E85D" stroke="white" stroke-width="1.5" stroke-miterlimit="10" stroke-linecap="round"/>
<path d="M67.1701 74.25C67.1701 76.43 65.4001 78.19 63.2301 78.19H22.5301C20.3501 78.19 18.5901 76.42 18.5901 74.25C18.5901 72.07 20.3601 70.31 22.5301 70.31H63.2301C65.4101 70.31 67.1701 72.08 67.1701 74.25V74.25Z" fill="#B5E85D" stroke="white" stroke-width="1.5" stroke-miterlimit="10" stroke-linecap="round"/>
<path d="M40.8301 36.2L44.9201 40.29" stroke="white" stroke-width="1.5" stroke-miterlimit="10" stroke-linecap="round"/>
<path d="M44.9201 36.2L40.8301 40.29" stroke="white" stroke-width="1.5" stroke-miterlimit="10" stroke-linecap="round"/>
</svg>
