<svg width="85" height="115" viewBox="0 0 85 115" fill="none" xmlns="http://www.w3.org/2000/svg">
<path d="M18.5723 74.2082C18.5723 76.3882 20.3423 78.1482 22.5123 78.1482H63.2123C65.3923 78.1482 67.1523 76.3782 67.1523 74.2082C67.1523 72.0282 65.3823 70.2682 63.2123 70.2682H22.5123C20.3323 70.2682 18.5723 72.0382 18.5723 74.2082V74.2082Z" fill="#B5E85D" stroke="white" stroke-width="1.5" stroke-miterlimit="10" stroke-linecap="round"/>
<path d="M42.52 78.1482V102.338" stroke="white" stroke-width="1.5" stroke-miterlimit="10" stroke-linecap="round"/>
<path d="M68.65 106.338V107.338C68.65 104.578 66.41 102.338 63.65 102.338H20.75C17.99 102.338 15.75 104.578 15.75 107.338V106.338" stroke="white" stroke-width="1.5" stroke-miterlimit="10" stroke-linecap="round"/>
<path d="M43.76 102.338C41 102.338 38.76 104.578 38.76 107.338V106.478" stroke="white" stroke-width="1.5" stroke-miterlimit="10" stroke-linecap="round"/>
<path d="M12 110.078C12 112.148 13.68 113.818 15.74 113.818C17.8 113.818 19.48 112.148 19.48 110.078C19.48 108.008 17.8 106.338 15.74 106.338C13.68 106.338 12 108.008 12 110.078Z" fill="#B5E85D" stroke="white" stroke-width="1.5" stroke-miterlimit="10" stroke-linecap="round"/>
<path d="M35.02 110.078C35.02 112.148 36.7 113.818 38.76 113.818C40.82 113.818 42.5 112.148 42.5 110.078C42.5 108.008 40.82 106.338 38.76 106.338C36.7 106.338 35.02 108.008 35.02 110.078V110.078Z" fill="#B5E85D" stroke="white" stroke-width="1.5" stroke-miterlimit="10" stroke-linecap="round"/>
<path d="M64.9 110.078C64.9 112.148 66.58 113.818 68.64 113.818C70.7 113.818 72.38 112.148 72.38 110.078C72.38 108.008 70.7 106.338 68.64 106.338C66.58 106.338 64.9 108.008 64.9 110.078V110.078Z" fill="#B5E85D" stroke="white" stroke-width="1.5" stroke-miterlimit="10" stroke-linecap="round"/>
<path d="M75.5523 4.04817L76.4223 4.16817C77.3023 4.28817 78.0923 4.65817 78.7523 5.15817C80.1523 5.91817 81.0023 7.48817 80.7723 9.15817L80.6823 9.80817L77.8523 30.2082L72.2623 70.4382C71.9623 72.5982 69.9723 74.0982 67.8123 73.7982C65.6523 73.4982 64.1523 71.5082 64.4523 69.3482L69.4123 33.6582C67.7823 32.6482 66.8023 30.7482 67.0823 28.7182L69.9123 8.30817C70.2923 5.57817 72.8223 3.66817 75.5523 4.04817Z" fill="#B5E85D" stroke="white" stroke-width="1.5" stroke-miterlimit="10" stroke-linecap="round"/>
<path d="M62.1822 73.2882C62.1822 75.4882 63.9722 77.2782 66.1722 77.2782C68.3722 77.2782 70.1622 75.4882 70.1622 73.2882C70.1622 71.0882 68.3722 69.2982 66.1722 69.2982C63.9722 69.2982 62.1822 71.0882 62.1822 73.2882Z" fill="#B5E85D" stroke="white" stroke-width="1.5" stroke-miterlimit="10" stroke-linecap="round"/>
<path d="M65.5524 73.2882C65.5524 73.5782 65.7824 73.8182 66.0724 73.8182C66.3624 73.8182 66.5924 73.5782 66.5924 73.2882C66.5924 72.9982 66.3624 72.7682 66.0724 72.7682C65.7824 72.7682 65.5524 73.0082 65.5524 73.2882Z" fill="#B5E85D" stroke="white" stroke-width="1.5" stroke-miterlimit="10" stroke-linecap="round"/>
<path d="M30.6524 49.9982H55.1424C56.8824 49.9982 58.2924 51.4082 58.2924 53.1482C58.2924 54.8882 56.8824 56.2982 55.1424 56.2982H46.0524V72.2082C46.0524 73.4982 44.6424 74.5482 42.9024 74.5482C41.1624 74.5482 39.7524 73.4982 39.7524 72.2082V56.2982H30.6624C28.9224 56.2982 27.5124 54.8882 27.5124 53.1482C27.5124 51.4082 28.9224 49.9982 30.6624 49.9982H30.6524Z" fill="#B5E85D" stroke="white" stroke-width="1.5" stroke-miterlimit="10" stroke-linecap="round"/>
</svg>
