<svg width="25" height="25" viewBox="-5 -5 25 25" fill="none" xmlns="http://www.w3.org/2000/svg">
<path d="M14.4958 1.06065C13.9099 0.474861 12.9602 0.474861 12.3744 1.06065L7.77823 5.65684L3.18204 1.06065C2.59622 0.474861 1.64651 0.474861 1.0607 1.06065C0.475006 1.64643 0.475006 2.59618 1.0607 3.18197L5.65689 7.77816L1.0607 12.3744C0.474884 12.9602 0.474884 13.9099 1.0607 14.4957C1.64651 15.0815 2.59622 15.0815 3.18204 14.4957L7.77823 9.89948L12.3744 14.4957C12.9602 15.0815 13.9099 15.0815 14.4958 14.4957C15.0816 13.9099 15.0816 12.9602 14.4958 12.3744L9.89957 7.77816L14.4958 3.18197C15.0816 2.59618 15.0816 1.64645 14.4958 1.06065Z" fill="#6667AB"/>
</svg>
