<svg width="32" height="21" viewBox="0 0 32 21" fill="none" xmlns="http://www.w3.org/2000/svg">
<path fill-rule="evenodd" clip-rule="evenodd" d="M4 2.3H28C28.1831 2.3 28.3594 2.32893 28.5246 2.38248L17.3722 12.4196C16.602 13.1128 15.4299 13.1029 14.6715 12.3968L3.83524 2.30788C3.88945 2.30267 3.94442 2.3 4 2.3ZM2.33699 3.6456C2.31275 3.75991 2.3 3.87847 2.3 4V16.8689L9.369 10.1926L2.33699 3.6456ZM3.3924 18.5882C3.58108 18.6604 3.78592 18.7 4 18.7H28C28.3782 18.7 28.7276 18.5765 29.01 18.3676L21.9482 10.9919L18.7102 13.9062C17.1697 15.2926 14.8255 15.2728 13.3086 13.8606L10.8358 11.5583L3.3924 18.5882ZM29.7 16.1963V4.01533L23.4355 9.65336L29.7 16.1963ZM31.6171 2.28996C31.8626 2.80845 32 3.38819 32 4V17C32 19.2091 30.2091 21 28 21H4C1.79086 21 0 19.2091 0 17V4C0 1.79086 1.79086 0 4 0H28C29.4991 0 30.8056 0.824666 31.4906 2.04509L31.6689 2.24329L31.6171 2.28996Z" fill="white"/>
</svg>
