<svg width="34" height="23" viewBox="0 0 34 23" fill="none" xmlns="http://www.w3.org/2000/svg">
<path fill-rule="evenodd" clip-rule="evenodd" d="M4 3H30C30.2286 3 30.4393 3.07672 30.6078 3.20581L18.2719 14.3081C17.5594 14.9493 16.4752 14.9402 15.7737 14.287L3.6998 3.04584C3.79456 3.01606 3.8954 3 4 3ZM3 5.53684V18.9459L10.1497 12.1934L3 5.53684ZM5.23364 20H29.4504L22.9404 13.2007L19.8105 16.0177C18.2123 17.4561 15.7801 17.4355 14.2064 15.9704L11.8365 13.7639L5.23364 20ZM31 18.2927V5.94712L24.6508 11.6614L31 18.2927ZM0 4C0 1.79086 1.79086 0 4 0H30C32.2091 0 34 1.79086 34 4V19C34 21.2091 32.2091 23 30 23H4C1.79086 23 0 21.2091 0 19V4Z" fill="white"/>
</svg>
